<?xml version="1.0" encoding="UTF-8"?>
<svg id="Layer_2" data-name="Layer 2" xmlns="http://www.w3.org/2000/svg" viewBox="0 0 30.1 30.1">
  <defs>
    <style>
      .cls-1 {
        fill: #fff;
        fill-rule: evenodd;
        stroke-width: 0px;
      }
    </style>
  </defs>
  <g id="Layer_1-2" data-name="Layer 1">
    <path class="cls-1" d="M15.05,0c8.31,0,15.05,6.74,15.05,15.05s-6.74,15.05-15.05,15.05S0,23.35,0,15.05,6.74,0,15.05,0ZM15.05,5.64c-2.55,0-2.87.01-3.88.06-1,.05-1.68.2-2.28.44-.62.24-1.14.56-1.67,1.08s-.84,1.05-1.08,1.67c-.23.6-.39,1.28-.44,2.28-.05,1-.06,1.32-.06,3.88s.01,2.87.06,3.88c.05,1,.2,1.68.44,2.28.24.62.56,1.14,1.08,1.67.52.52,1.05.84,1.67,1.08.6.23,1.28.39,2.28.44,1,.05,1.32.06,3.88.06s2.87-.01,3.88-.06c1-.05,1.68-.2,2.28-.44.62-.24,1.14-.56,1.67-1.08.52-.52.84-1.05,1.08-1.67.23-.6.39-1.28.44-2.28.05-1,.06-1.32.06-3.88s-.01-2.87-.06-3.88c-.05-1-.2-1.68-.44-2.28-.24-.62-.56-1.14-1.08-1.67-.52-.52-1.05-.84-1.67-1.08-.6-.23-1.28-.39-2.28-.44-1-.05-1.32-.06-3.88-.06ZM15.05,7.34c2.51,0,2.81,0,3.8.05.92.04,1.41.2,1.75.32.44.17.75.37,1.08.7.33.33.53.64.7,1.08.13.33.28.83.32,1.75.05.99.05,1.29.05,3.8s0,2.81-.05,3.8c-.04.92-.2,1.41-.32,1.75-.17.44-.37.75-.7,1.08-.33.33-.64.53-1.08.7-.33.13-.83.28-1.75.32-.99.05-1.29.05-3.8.05s-2.81,0-3.8-.05c-.92-.04-1.41-.2-1.75-.32-.44-.17-.75-.37-1.08-.7-.33-.33-.53-.64-.7-1.08-.13-.33-.28-.83-.32-1.75-.05-.99-.05-1.29-.05-3.8s0-2.81.05-3.8c.04-.92.2-1.41.32-1.75.17-.44.37-.75.7-1.08.33-.33.64-.53,1.08-.7.33-.13.83-.28,1.75-.32.99-.05,1.29-.05,3.8-.05h0ZM15.05,10.22c-2.67,0-4.83,2.16-4.83,4.83s2.16,4.83,4.83,4.83,4.83-2.16,4.83-4.83-2.16-4.83-4.83-4.83h0ZM15.05,18.18c-1.73,0-3.13-1.4-3.13-3.13s1.4-3.13,3.13-3.13,3.13,1.4,3.13,3.13-1.4,3.13-3.13,3.13ZM21.2,10.03c0,.62-.51,1.13-1.13,1.13s-1.13-.51-1.13-1.13.51-1.13,1.13-1.13,1.13.51,1.13,1.13Z"/>
  </g>
</svg>