<?xml version="1.0" encoding="UTF-8"?>
<svg id="Layer_2" data-name="Layer 2" xmlns="http://www.w3.org/2000/svg" viewBox="0 0 30.1 30.1">
  <defs>
    <style>
      .cls-1 {
        fill: #fff;
        stroke-width: 0px;
      }
    </style>
  </defs>
  <g id="Layer_1-2" data-name="Layer 1">
    <g>
      <polygon class="cls-1" points="15.19 13.84 11.31 8.41 9.25 8.41 14.05 15.13 14.66 15.98 18.77 21.74 20.84 21.74 15.8 14.68 15.19 13.84"/>
      <path class="cls-1" d="M15.05,0C6.74,0,0,6.74,0,15.05s6.74,15.05,15.05,15.05,15.05-6.74,15.05-15.05S23.36,0,15.05,0ZM18.14,22.68l-4.16-5.93-5.21,5.93h-1.35l5.96-6.78L7.41,7.41h4.55l3.94,5.61,4.94-5.61h1.35l-5.68,6.47,6.18,8.8h-4.55Z"/>
    </g>
  </g>
</svg>