<?xml version="1.0" encoding="UTF-8"?>
<svg id="Layer_2" data-name="Layer 2" xmlns="http://www.w3.org/2000/svg" viewBox="0 0 79.45 39.43">
  <defs>
    <style>
      .cls-1 {
        fill: #fff;
        stroke-width: 0px;
      }
    </style>
  </defs>
  <g id="Layer_1-2" data-name="Layer 1">
    <path class="cls-1" d="M39.43,20.93v7.58c0,.51-.41.92-.92.92h-7.58c-.51,0-.92-.41-.92-.92v-7.58c0-.51.41-.92.92-.92h7.58c.51,0,.92.41.92.92ZM28.51,30.02h-7.58c-.51,0-.92.41-.92.92v7.58c0,.51.41.92.92.92h7.58c.51,0,.92-.41.92-.92v-7.58c0-.51-.41-.92-.92-.92ZM18.5,20.01h-7.58c-.51,0-.92.41-.92.92v7.58c0,.51.41.92.92.92h7.58c.51,0,.92-.41.92-.92v-7.58c0-.51-.41-.92-.92-.92ZM38.11,29.94h-7.52c-.31,0-.56.25-.56.56v7.52c0,.49.6.74.95.39l7.52-7.52c.35-.35.1-.95-.39-.95ZM28.51,10.01h-7.58c-.51,0-.92.41-.92.92v7.58c0,.51.41.92.92.92h7.58c.51,0,.92-.41.92-.92v-7.58c0-.51-.41-.92-.92-.92ZM18.5,10.01h-7.58c-.51,0-.92.41-.92.92v7.58c0,.51.41.92.92.92h7.58c.51,0,.92-.41.92-.92v-7.58c0-.51-.41-.92-.92-.92ZM18.79,29.94h-7.48c-.51,0-.76.61-.4.97l7.48,7.48c.36.36.97.1.97-.4v-7.48c0-.31-.25-.57-.57-.57ZM30.57,19.42h7.52c.5,0,.74-.6.39-.95l-7.52-7.52c-.35-.35-.95-.1-.95.39v7.52c0,.31.25.56.56.56ZM8.5,10.01H.92c-.51,0-.92.41-.92.92v7.58c0,.51.41.92.92.92h7.58c.51,0,.92-.41.92-.92v-7.58c0-.51-.41-.92-.92-.92ZM10.54,9.52h7.51c.5,0,.75-.6.39-.95L10.94,1.06c-.35-.35-.95-.1-.95.39v7.51c0,.31.25.56.56.56ZM68.53,10.01h-7.58c-.51,0-.92.41-.92.92v7.58c0,.51.41.92.92.92h7.58c.51,0,.92-.41.92-.92v-7.58c0-.51-.41-.92-.92-.92ZM78.53,30.02h-7.58c-.51,0-.92.41-.92.92v7.58c0,.51.41.92.92.92h7.58c.51,0,.92-.41.92-.92v-7.58c0-.51-.41-.92-.92-.92ZM48.52,30.02h-7.58c-.51,0-.92.41-.92.92v7.58c0,.51.41.92.92.92h7.58c.51,0,.92-.41.92-.92v-7.58c0-.51-.41-.92-.92-.92ZM78.53,10.01h-7.58c-.51,0-.92.41-.92.92v7.58c0,.51.41.92.92.92h7.58c.51,0,.92-.41.92-.92v-7.58c0-.51-.41-.92-.92-.92ZM68.84,30.12h-7.52c-.49,0-.74.6-.39.95l7.52,7.52c.35.35.95.1.95-.39v-7.52c0-.31-.25-.55-.55-.55ZM68.53,20.01h-7.58c-.51,0-.92.41-.92.92v7.58c0,.51.41.92.92.92h7.58c.51,0,.92-.41.92-.92v-7.58c0-.51-.41-.92-.92-.92ZM60.57,9.52h7.51c.5,0,.75-.6.39-.95l-7.51-7.51c-.35-.35-.95-.1-.95.39v7.51c0,.31.25.56.56.56ZM48.52,20.01h-7.58c-.51,0-.92.41-.92.92v7.58c0,.51.41.92.92.92h7.58c.51,0,.92-.41.92-.92v-7.58c0-.51-.41-.92-.92-.92ZM48.52,0h-7.58c-.51,0-.92.41-.92.92v7.58c0,.51.41.92.92.92h7.58c.51,0,.92-.41.92-.92V.92c0-.51-.41-.92-.92-.92ZM58.52,10.01h-7.58c-.51,0-.92.41-.92.92v7.58c0,.51.41.92.92.92h7.58c.51,0,.92-.41.92-.92v-7.58c0-.51-.41-.92-.92-.92Z"/>
  </g>
</svg>