<?xml version="1.0" encoding="utf-8"?>
<!-- Generator: Adobe Illustrator 16.0.0, SVG Export Plug-In . SVG Version: 6.00 Build 0)  -->
<!DOCTYPE svg PUBLIC "-//W3C//DTD SVG 1.1//EN" "http://www.w3.org/Graphics/SVG/1.1/DTD/svg11.dtd">
<svg version="1.1" xmlns="http://www.w3.org/2000/svg" xmlns:xlink="http://www.w3.org/1999/xlink" x="0px" y="0px" width="296px"
	 height="176px" viewBox="0 0 296 176" enable-background="new 0 0 296 176" xml:space="preserve">
<g id="b_1_">
	<g id="Rectangle_1">
		<g>
			<rect x="38" y="1" fill="#494949" width="35" height="34.949"/>
		</g>
	</g>
	<g id="Rectangle_1_copy">
		<g>
			<rect x="38" y="37.946" fill="#494949" width="35" height="34.95"/>
		</g>
	</g>
	<g id="Rectangle_1_copy_9">
		<g>
			<rect x="75" y="37.946" fill="#494949" width="35" height="34.95"/>
		</g>
	</g>
	<g id="Rectangle_1_copy_3">
		<g>
			<rect x="1" y="37.946" fill="#494949" width="35" height="34.95"/>
		</g>
	</g>
	<g id="Rectangle_1_copy_2">
		<g>
			<rect x="38" y="74.894" fill="#494949" width="35" height="34.949"/>
		</g>
	</g>
	<g id="Rectangle_1_copy_5">
		<g>
			<rect x="75" y="111.84" fill="#494949" width="35" height="34.95"/>
		</g>
	</g>
	<g id="Rectangle_1_copy_7">
		<g>
			<rect x="112" y="74.894" fill="#494949" width="35" height="34.949"/>
		</g>
	</g>
	<g id="Rectangle_1_copy_8">
		<g>
			<polygon fill="#494949" points="112,37.946 112,72.896 147,72.896 			"/>
		</g>
	</g>
	<g id="Rectangle_1_copy_6">
		<g>
			<polygon fill="#494949" points="112,111.84 112,146.79 147,111.84 			"/>
		</g>
	</g>
	<g id="Rectangle_1_copy_4">
		<g>
			<polygon fill="#494949" points="38,111.84 73,146.79 73,111.84 			"/>
		</g>
	</g>
</g>
<g id="i_1_">
	<g id="Rectangle_1_copy_11">
		<g>
			<rect x="149" y="74.894" fill="#494949" width="35" height="34.949"/>
		</g>
	</g>
	<g id="Rectangle_1_copy_12">
		<g>
			<rect x="149" y="111.84" fill="#494949" width="35" height="34.95"/>
		</g>
	</g>
	<g id="Rectangle_1_copy_14">
		<g>
			<rect x="149" y="1" fill="#494949" width="35" height="34.949"/>
		</g>
	</g>
</g>
<g id="t_1_">
	<g id="Rectangle_1_1_">
		<g>
			<rect x="223" y="1" fill="#494949" width="35" height="34.949"/>
		</g>
	</g>
	<g id="Rectangle_1_copy_1_">
		<g>
			<rect x="223" y="37.946" fill="#494949" width="35" height="34.95"/>
		</g>
	</g>
	<g id="Rectangle_1_copy_9_1_">
		<g>
			<rect x="260" y="37.946" fill="#494949" width="35" height="34.95"/>
		</g>
	</g>
	<g id="Rectangle_1_copy_3_1_">
		<g>
			<rect x="186" y="37.946" fill="#494949" width="35" height="34.95"/>
		</g>
	</g>
	<g id="Rectangle_1_copy_2_1_">
		<g>
			<rect x="223" y="74.894" fill="#494949" width="35" height="34.949"/>
		</g>
	</g>
	<g id="Rectangle_1_copy_5_1_">
		<g>
			<rect x="260" y="111.84" fill="#494949" width="35" height="34.95"/>
		</g>
	</g>
	<g id="Rectangle_1_copy_4_1_">
		<g>
			<polygon fill="#494949" points="223,111.84 258,146.79 258,111.84 			"/>
		</g>
	</g>
</g>
<g id="Bicol_Information_Technology_Organization_1_" enable-background="new    ">
	<g id="Bicol_Information_Technology_Organization">
		<g>
			<path fill="#494949" d="M43.312,167.771c0.265-0.136,0.466-0.286,0.602-0.45c0.244-0.293,0.366-0.682,0.366-1.164
				c0-0.469-0.121-0.87-0.362-1.207c-0.401-0.547-1.083-0.827-2.046-0.842h-3.815v7.905h3.558c0.401,0,0.773-0.035,1.116-0.106
				c0.342-0.072,0.64-0.204,0.892-0.397c0.224-0.168,0.41-0.375,0.559-0.622c0.234-0.372,0.352-0.792,0.352-1.261
				c0-0.454-0.103-0.84-0.308-1.158S43.715,167.918,43.312,167.771z M39.63,165.481h1.718c0.378,0,0.689,0.041,0.933,0.123
				c0.283,0.118,0.424,0.361,0.424,0.729c0,0.333-0.107,0.564-0.321,0.694c-0.214,0.131-0.492,0.196-0.835,0.196H39.63V165.481z
				 M42.347,170.502c-0.19,0.093-0.457,0.139-0.799,0.139H39.63v-2.107h1.943c0.339,0.004,0.602,0.048,0.789,0.134
				c0.335,0.154,0.503,0.437,0.503,0.848C42.866,170.001,42.693,170.33,42.347,170.502z M46.628,172.014h1.548v-5.846h-1.548
				V172.014z M46.628,165.471h1.548v-1.41h-1.548V165.471z M52.822,167.321c0.361,0,0.628,0.118,0.8,0.354
				c0.118,0.176,0.191,0.372,0.22,0.59h1.564c-0.086-0.833-0.362-1.414-0.829-1.743c-0.466-0.328-1.066-0.493-1.798-0.493
				c-0.862,0-1.537,0.279-2.027,0.837s-0.734,1.338-0.734,2.341c0,0.889,0.221,1.612,0.665,2.17s1.135,0.837,2.075,0.837
				c0.94,0,1.649-0.335,2.128-1.003c0.3-0.415,0.468-0.854,0.504-1.319h-1.559c-0.032,0.307-0.124,0.558-0.274,0.75
				c-0.15,0.193-0.404,0.29-0.762,0.29c-0.505,0-0.849-0.243-1.031-0.729c-0.1-0.26-0.15-0.604-0.15-1.032
				c0-0.449,0.05-0.81,0.15-1.081C51.954,167.577,52.307,167.321,52.822,167.321z M59.692,165.98c-1.003,0-1.751,0.309-2.244,0.927
				c-0.493,0.618-0.739,1.349-0.739,2.191c0,0.857,0.246,1.591,0.739,2.2c0.493,0.609,1.241,0.914,2.244,0.914
				s1.751-0.305,2.244-0.914s0.739-1.343,0.739-2.2c0-0.843-0.247-1.573-0.739-2.191S60.696,165.98,59.692,165.98z M60.715,170.454
				c-0.239,0.317-0.582,0.477-1.028,0.477s-0.79-0.159-1.031-0.477c-0.241-0.317-0.361-0.77-0.361-1.355
				c0-0.585,0.121-1.036,0.361-1.352c0.241-0.316,0.585-0.475,1.031-0.475s0.789,0.158,1.028,0.475
				c0.239,0.315,0.359,0.767,0.359,1.352C61.074,169.685,60.955,170.137,60.715,170.454z M64.81,172.014h1.526v-7.905H64.81V172.014
				z M72.252,172.014h1.639v-7.905h-1.639V172.014z M79.239,166.028c-0.48,0-0.876,0.118-1.189,0.354
				c-0.174,0.132-0.359,0.349-0.555,0.648v-0.853h-1.479v5.835h1.526v-3.164c0-0.361,0.05-0.658,0.149-0.891
				c0.191-0.439,0.544-0.659,1.058-0.659c0.418,0,0.702,0.15,0.851,0.45c0.082,0.165,0.122,0.4,0.122,0.708v3.556h1.564v-3.937
				c0-0.732-0.191-1.258-0.573-1.574S79.84,166.028,79.239,166.028z M85.488,165.729c0-0.114,0.039-0.22,0.115-0.314
				s0.216-0.139,0.418-0.134c0.202,0.006,0.345,0.014,0.431,0.024v-1.244c-0.136-0.011-0.243-0.02-0.321-0.024
				c-0.079-0.006-0.166-0.008-0.263-0.008c-0.846,0-1.38,0.175-1.602,0.525c-0.21,0.236-0.316,0.667-0.316,1.292v0.376h-0.835v1.078
				h0.857v4.714h1.516V167.3h1.002v-1.078h-1.002V165.729z M91.075,165.98c-1.003,0-1.751,0.309-2.244,0.927
				c-0.493,0.618-0.739,1.349-0.739,2.191c0,0.857,0.246,1.591,0.739,2.2c0.493,0.609,1.241,0.914,2.244,0.914
				s1.751-0.305,2.244-0.914s0.739-1.343,0.739-2.2c0-0.843-0.247-1.573-0.739-2.191S92.078,165.98,91.075,165.98z M92.098,170.454
				c-0.239,0.317-0.582,0.477-1.028,0.477s-0.79-0.159-1.031-0.477c-0.241-0.317-0.361-0.77-0.361-1.355
				c0-0.585,0.121-1.036,0.361-1.352c0.241-0.316,0.585-0.475,1.031-0.475s0.789,0.158,1.028,0.475
				c0.239,0.315,0.359,0.767,0.359,1.352C92.457,169.685,92.337,170.137,92.098,170.454z M99.331,166.028
				c-0.457,0-0.829,0.12-1.114,0.359c-0.175,0.144-0.38,0.409-0.616,0.8v-1.02h-1.457v5.846h1.537v-2.794
				c0-0.469,0.059-0.815,0.177-1.04c0.211-0.4,0.623-0.602,1.237-0.602c0.046,0,0.107,0.002,0.182,0.006
				c0.075,0.004,0.161,0.011,0.257,0.021v-1.566c-0.068-0.003-0.112-0.006-0.131-0.008S99.359,166.028,99.331,166.028z
				 M108.859,166.715c-0.204-0.25-0.43-0.425-0.68-0.525c-0.25-0.1-0.503-0.15-0.761-0.15c-0.386,0-0.735,0.081-1.05,0.241
				c-0.296,0.161-0.544,0.413-0.745,0.757c-0.114-0.286-0.282-0.521-0.503-0.703c-0.275-0.196-0.636-0.295-1.082-0.295
				c-0.471,0-0.855,0.114-1.151,0.344c-0.168,0.129-0.347,0.345-0.536,0.648v-0.853h-1.484v5.835h1.548v-3.518
				c0-0.318,0.041-0.559,0.124-0.719c0.15-0.283,0.443-0.424,0.878-0.424c0.375,0,0.626,0.141,0.755,0.424
				c0.071,0.157,0.107,0.409,0.107,0.756v3.48h1.537v-3.48c0-0.261,0.041-0.484,0.123-0.67c0.161-0.351,0.452-0.526,0.874-0.526
				c0.364,0,0.614,0.136,0.75,0.408c0.072,0.143,0.107,0.325,0.107,0.547v3.722h1.564l0.011-3.685c0-0.379-0.018-0.667-0.054-0.863
				C109.134,167.169,109.023,166.919,108.859,166.715z M116.356,171.204c-0.007-0.265-0.011-0.49-0.011-0.676v-2.682
				c0-0.704-0.249-1.184-0.748-1.438s-1.069-0.381-1.711-0.381c-0.986,0-1.682,0.258-2.087,0.772
				c-0.255,0.329-0.398,0.749-0.431,1.261h1.473c0.036-0.226,0.108-0.404,0.217-0.536c0.152-0.18,0.411-0.269,0.776-0.269
				c0.326,0,0.573,0.046,0.741,0.137c0.168,0.091,0.253,0.257,0.253,0.496c0,0.196-0.11,0.342-0.329,0.435
				c-0.123,0.054-0.326,0.099-0.61,0.134l-0.523,0.064c-0.594,0.075-1.043,0.2-1.349,0.375c-0.558,0.322-0.836,0.843-0.836,1.562
				c0,0.554,0.173,0.982,0.52,1.284s0.786,0.453,1.317,0.453c0.417,0,0.79-0.095,1.121-0.284c0.276-0.161,0.521-0.355,0.732-0.585
				c0.011,0.133,0.025,0.251,0.043,0.354s0.05,0.215,0.097,0.332h1.66v-0.225c-0.1-0.047-0.175-0.105-0.225-0.178
				C116.397,171.54,116.367,171.404,116.356,171.204z M114.824,169.74c-0.011,0.511-0.157,0.863-0.438,1.057
				c-0.281,0.192-0.588,0.289-0.922,0.289c-0.21,0-0.389-0.058-0.536-0.174c-0.147-0.116-0.22-0.305-0.22-0.566
				c0-0.293,0.12-0.509,0.36-0.648c0.142-0.082,0.376-0.152,0.702-0.209l0.348-0.064c0.174-0.032,0.31-0.067,0.41-0.104
				c0.1-0.038,0.198-0.087,0.296-0.147V169.74z M120.021,164.591h-1.51v1.631h-0.814v1.089h0.814v3.599
				c0,0.364,0.086,0.635,0.257,0.81c0.264,0.275,0.757,0.4,1.478,0.376l0.723-0.027v-1.143c-0.05,0.004-0.101,0.007-0.153,0.009
				s-0.101,0.002-0.147,0.002c-0.311,0-0.497-0.029-0.557-0.088c-0.061-0.06-0.091-0.208-0.091-0.448v-3.089h0.948v-1.089h-0.948
				V164.591z M123.053,172.014h1.548v-5.846h-1.548V172.014z M123.053,165.471h1.548v-1.41h-1.548V165.471z M129.398,165.98
				c-1.003,0-1.751,0.309-2.244,0.927s-0.739,1.349-0.739,2.191c0,0.857,0.247,1.591,0.739,2.2s1.241,0.914,2.244,0.914
				s1.751-0.305,2.244-0.914c0.493-0.609,0.739-1.343,0.739-2.2c0-0.843-0.246-1.573-0.739-2.191
				C131.15,166.289,130.402,165.98,129.398,165.98z M130.421,170.454c-0.239,0.317-0.582,0.477-1.028,0.477s-0.79-0.159-1.031-0.477
				c-0.241-0.317-0.362-0.77-0.362-1.355c0-0.585,0.121-1.036,0.362-1.352c0.241-0.316,0.584-0.475,1.031-0.475
				s0.789,0.158,1.028,0.475c0.239,0.315,0.359,0.767,0.359,1.352C130.78,169.685,130.661,170.137,130.421,170.454z
				 M137.717,166.028c-0.48,0-0.877,0.118-1.189,0.354c-0.174,0.132-0.359,0.349-0.555,0.648v-0.853h-1.479v5.835h1.526v-3.164
				c0-0.361,0.05-0.658,0.149-0.891c0.191-0.439,0.544-0.659,1.058-0.659c0.418,0,0.702,0.15,0.851,0.45
				c0.082,0.165,0.122,0.4,0.122,0.708v3.556h1.564v-3.937c0-0.732-0.191-1.258-0.573-1.574S138.317,166.028,137.717,166.028z
				 M145.4,165.508h2.373v6.506h1.661v-6.506h2.361v-1.399H145.4V165.508z M157.932,168.359c-0.07-0.458-0.226-0.86-0.465-1.208
				c-0.266-0.394-0.602-0.683-1.009-0.865s-0.864-0.273-1.373-0.273c-0.855,0-1.552,0.27-2.087,0.811
				c-0.537,0.54-0.805,1.316-0.805,2.329c0,1.081,0.297,1.861,0.891,2.341s1.279,0.72,2.057,0.72c0.941,0,1.674-0.285,2.196-0.854
				c0.337-0.357,0.524-0.709,0.565-1.057h-1.559c-0.09,0.172-0.195,0.306-0.313,0.402c-0.218,0.179-0.5,0.269-0.848,0.269
				c-0.328,0-0.608-0.073-0.842-0.22c-0.384-0.236-0.587-0.647-0.61-1.233h4.252C157.99,169.016,157.973,168.629,157.932,168.359z
				 M153.768,168.512c0.056-0.381,0.191-0.683,0.406-0.905c0.217-0.223,0.52-0.334,0.912-0.334c0.359,0,0.662,0.105,0.905,0.315
				s0.379,0.519,0.407,0.924H153.768z M161.844,167.321c0.361,0,0.628,0.118,0.8,0.354c0.118,0.176,0.192,0.372,0.22,0.59h1.564
				c-0.086-0.833-0.361-1.414-0.828-1.743c-0.467-0.328-1.066-0.493-1.799-0.493c-0.861,0-1.537,0.279-2.027,0.837
				c-0.489,0.558-0.734,1.338-0.734,2.341c0,0.889,0.223,1.612,0.666,2.17c0.442,0.558,1.135,0.837,2.074,0.837
				s1.649-0.335,2.129-1.003c0.3-0.415,0.468-0.854,0.504-1.319h-1.559c-0.033,0.307-0.124,0.558-0.274,0.75
				c-0.149,0.193-0.404,0.29-0.763,0.29c-0.504,0-0.848-0.243-1.03-0.729c-0.101-0.26-0.15-0.604-0.15-1.032
				c0-0.449,0.05-0.81,0.15-1.081C160.976,167.577,161.328,167.321,161.844,167.321z M171.008,166.774
				c-0.188-0.257-0.43-0.449-0.723-0.574s-0.619-0.188-0.979-0.188c-0.32,0-0.625,0.066-0.914,0.201
				c-0.291,0.134-0.545,0.371-0.766,0.71v-2.788H166.1v7.878h1.527v-3.168c0-0.501,0.104-0.887,0.311-1.156
				c0.207-0.271,0.512-0.406,0.912-0.406c0.387,0,0.648,0.137,0.787,0.408c0.105,0.193,0.159,0.447,0.159,0.763v3.56h1.559v-3.436
				c0-0.522-0.018-0.898-0.054-1.13C171.266,167.218,171.168,166.993,171.008,166.774z M177.032,166.028
				c-0.479,0-0.876,0.118-1.189,0.354c-0.175,0.132-0.359,0.349-0.555,0.648v-0.853h-1.479v5.835h1.526v-3.164
				c0-0.361,0.05-0.658,0.149-0.891c0.191-0.439,0.544-0.659,1.058-0.659c0.418,0,0.702,0.15,0.852,0.45
				c0.081,0.165,0.121,0.4,0.121,0.708v3.556h1.564v-3.937c0-0.732-0.191-1.258-0.573-1.574S177.633,166.028,177.032,166.028z
				 M184.133,165.98c-1.003,0-1.751,0.309-2.244,0.927c-0.492,0.618-0.738,1.349-0.738,2.191c0,0.857,0.246,1.591,0.738,2.2
				c0.493,0.609,1.241,0.914,2.244,0.914c1.004,0,1.752-0.305,2.244-0.914c0.493-0.609,0.74-1.343,0.74-2.2
				c0-0.843-0.247-1.573-0.74-2.191C185.885,166.289,185.137,165.98,184.133,165.98z M185.156,170.454
				c-0.239,0.317-0.582,0.477-1.028,0.477s-0.79-0.159-1.031-0.477s-0.361-0.77-0.361-1.355c0-0.585,0.12-1.036,0.361-1.352
				c0.241-0.316,0.585-0.475,1.031-0.475s0.789,0.158,1.028,0.475c0.239,0.315,0.359,0.767,0.359,1.352
				C185.516,169.685,185.396,170.137,185.156,170.454z M189.25,172.014h1.527v-7.905h-1.527V172.014z M195.586,165.98
				c-1.004,0-1.752,0.309-2.244,0.927c-0.493,0.618-0.74,1.349-0.74,2.191c0,0.857,0.247,1.591,0.74,2.2
				c0.492,0.609,1.24,0.914,2.244,0.914c1.003,0,1.751-0.305,2.244-0.914c0.492-0.609,0.738-1.343,0.738-2.2
				c0-0.843-0.246-1.573-0.738-2.191C197.337,166.289,196.589,165.98,195.586,165.98z M196.608,170.454
				c-0.239,0.317-0.582,0.477-1.028,0.477s-0.79-0.159-1.031-0.477c-0.24-0.317-0.361-0.77-0.361-1.355
				c0-0.585,0.121-1.036,0.361-1.352c0.241-0.316,0.585-0.475,1.031-0.475s0.789,0.158,1.028,0.475
				c0.239,0.315,0.358,0.767,0.358,1.352C196.967,169.685,196.848,170.137,196.608,170.454z M204.457,167.01
				c-0.229-0.411-0.527-0.693-0.898-0.847c-0.217-0.09-0.473-0.135-0.765-0.135c-0.792,0-1.403,0.296-1.835,0.888
				s-0.647,1.322-0.647,2.191c0,0.9,0.224,1.615,0.673,2.143c0.447,0.527,1.047,0.791,1.797,0.791c0.485,0,0.88-0.116,1.184-0.349
				c0.168-0.125,0.324-0.313,0.471-0.563v0.376c0,0.558-0.061,0.954-0.182,1.19c-0.186,0.368-0.554,0.553-1.104,0.553
				c-0.389,0-0.666-0.07-0.83-0.21c-0.097-0.078-0.166-0.207-0.209-0.386h-1.66c0.05,0.583,0.311,1.021,0.781,1.313
				c0.472,0.294,1.08,0.44,1.827,0.44c1.235,0,2.071-0.329,2.507-0.987c0.254-0.383,0.38-0.951,0.38-1.705v-5.546h-1.489V167.01z
				 M204.078,170.354c-0.245,0.27-0.545,0.404-0.9,0.404c-0.534,0-0.904-0.246-1.109-0.74c-0.114-0.265-0.172-0.566-0.172-0.906
				c0-0.394,0.054-0.724,0.16-0.992c0.203-0.504,0.571-0.756,1.104-0.756c0.392,0,0.703,0.145,0.937,0.435
				c0.232,0.289,0.35,0.711,0.35,1.266C204.447,169.654,204.324,170.084,204.078,170.354z M210.75,170.48l-1.274-4.312h-1.698
				l2.146,6.104c0.011,0.043-0.022,0.161-0.099,0.354c-0.078,0.193-0.16,0.32-0.25,0.381c-0.093,0.064-0.207,0.105-0.342,0.124
				c-0.137,0.018-0.279,0.022-0.43,0.016l-0.192-0.011v1.223c0.165,0.011,0.288,0.018,0.37,0.02
				c0.082,0.001,0.191,0.002,0.327,0.002c0.675,0,1.126-0.133,1.351-0.399c0.226-0.267,0.531-0.954,0.918-2.062l2.002-5.75h-1.623
				L210.75,170.48z M222.456,163.867c-1.128,0-1.991,0.308-2.587,0.923c-0.8,0.726-1.199,1.812-1.199,3.261
				c0,1.419,0.399,2.506,1.199,3.261c0.596,0.615,1.459,0.923,2.587,0.923s1.991-0.308,2.587-0.923
				c0.797-0.755,1.195-1.842,1.195-3.261c0-1.448-0.398-2.535-1.195-3.261C224.447,164.175,223.584,163.867,222.456,163.867z
				 M224.012,170.11c-0.383,0.482-0.902,0.724-1.556,0.724s-1.175-0.241-1.563-0.724c-0.39-0.483-0.584-1.17-0.584-2.06
				c0-0.891,0.194-1.577,0.584-2.06c0.389-0.483,0.91-0.725,1.563-0.725s1.173,0.242,1.556,0.728
				c0.385,0.484,0.576,1.17,0.576,2.057C224.588,168.94,224.396,169.627,224.012,170.11z M231.705,166.028
				c-0.457,0-0.829,0.12-1.115,0.359c-0.174,0.144-0.38,0.409-0.615,0.8v-1.02h-1.457v5.846h1.537v-2.794
				c0-0.469,0.059-0.815,0.177-1.04c0.211-0.4,0.623-0.602,1.237-0.602c0.047,0,0.107,0.002,0.182,0.006
				c0.076,0.004,0.161,0.011,0.258,0.021v-1.566c-0.068-0.003-0.111-0.006-0.131-0.008S231.732,166.028,231.705,166.028z
				 M237.055,167.01c-0.229-0.411-0.527-0.693-0.898-0.847c-0.217-0.09-0.473-0.135-0.765-0.135c-0.792,0-1.403,0.296-1.835,0.888
				s-0.647,1.322-0.647,2.191c0,0.9,0.224,1.615,0.673,2.143c0.447,0.527,1.047,0.791,1.797,0.791c0.485,0,0.88-0.116,1.184-0.349
				c0.168-0.125,0.324-0.313,0.471-0.563v0.376c0,0.558-0.061,0.954-0.182,1.19c-0.186,0.368-0.554,0.553-1.104,0.553
				c-0.389,0-0.666-0.07-0.83-0.21c-0.097-0.078-0.166-0.207-0.209-0.386h-1.66c0.05,0.583,0.311,1.021,0.781,1.313
				c0.472,0.294,1.08,0.44,1.827,0.44c1.235,0,2.071-0.329,2.507-0.987c0.254-0.383,0.38-0.951,0.38-1.705v-5.546h-1.489V167.01z
				 M236.676,170.354c-0.245,0.27-0.545,0.404-0.9,0.404c-0.533,0-0.904-0.246-1.109-0.74c-0.114-0.265-0.172-0.566-0.172-0.906
				c0-0.394,0.055-0.724,0.16-0.992c0.203-0.504,0.571-0.756,1.104-0.756c0.392,0,0.703,0.145,0.937,0.435
				c0.232,0.289,0.35,0.711,0.35,1.266C237.045,169.654,236.922,170.084,236.676,170.354z M245.756,171.204
				c-0.008-0.265-0.012-0.49-0.012-0.676v-2.682c0-0.704-0.248-1.184-0.747-1.438s-1.069-0.381-1.71-0.381
				c-0.986,0-1.683,0.258-2.088,0.772c-0.255,0.329-0.398,0.749-0.43,1.261h1.473c0.035-0.226,0.108-0.404,0.217-0.536
				c0.152-0.18,0.41-0.269,0.776-0.269c0.325,0,0.573,0.046,0.741,0.137s0.252,0.257,0.252,0.496c0,0.196-0.109,0.342-0.328,0.435
				c-0.123,0.054-0.326,0.099-0.61,0.134l-0.523,0.064c-0.593,0.075-1.043,0.2-1.349,0.375c-0.558,0.322-0.836,0.843-0.836,1.562
				c0,0.554,0.173,0.982,0.52,1.284c0.346,0.302,0.785,0.453,1.316,0.453c0.417,0,0.791-0.095,1.121-0.284
				c0.276-0.161,0.521-0.355,0.732-0.585c0.012,0.133,0.025,0.251,0.043,0.354s0.051,0.215,0.097,0.332h1.661v-0.225
				c-0.101-0.047-0.176-0.105-0.226-0.178C245.797,171.54,245.766,171.404,245.756,171.204z M244.224,169.74
				c-0.011,0.511-0.157,0.863-0.438,1.057c-0.28,0.192-0.588,0.289-0.922,0.289c-0.209,0-0.389-0.058-0.535-0.174
				s-0.221-0.305-0.221-0.566c0-0.293,0.121-0.509,0.361-0.648c0.142-0.082,0.376-0.152,0.701-0.209l0.348-0.064
				c0.174-0.032,0.311-0.067,0.41-0.104c0.1-0.038,0.198-0.087,0.296-0.147V169.74z M250.929,166.028
				c-0.479,0-0.876,0.118-1.189,0.354c-0.175,0.132-0.358,0.349-0.555,0.648v-0.853h-1.478v5.835h1.525v-3.164
				c0-0.361,0.051-0.658,0.149-0.891c0.191-0.439,0.544-0.659,1.058-0.659c0.418,0,0.702,0.15,0.852,0.45
				c0.081,0.165,0.122,0.4,0.122,0.708v3.556h1.563v-3.937c0-0.732-0.191-1.258-0.573-1.574S251.529,166.028,250.929,166.028z
				 M255.427,172.014h1.548v-5.846h-1.548V172.014z M255.427,165.471h1.548v-1.41h-1.548V165.471z M263.434,167.439v-1.271h-4.617
				v1.244h2.689l-2.894,3.411v1.19h4.923v-1.255h-2.967L263.434,167.439z M270.644,171.204c-0.007-0.265-0.011-0.49-0.011-0.676
				v-2.682c0-0.704-0.249-1.184-0.748-1.438c-0.498-0.254-1.068-0.381-1.71-0.381c-0.986,0-1.683,0.258-2.087,0.772
				c-0.256,0.329-0.398,0.749-0.431,1.261h1.473c0.036-0.226,0.108-0.404,0.218-0.536c0.151-0.18,0.41-0.269,0.775-0.269
				c0.326,0,0.573,0.046,0.742,0.137c0.168,0.091,0.252,0.257,0.252,0.496c0,0.196-0.109,0.342-0.329,0.435
				c-0.122,0.054-0.325,0.099-0.61,0.134l-0.523,0.064c-0.593,0.075-1.043,0.2-1.349,0.375c-0.558,0.322-0.836,0.843-0.836,1.562
				c0,0.554,0.173,0.982,0.52,1.284s0.786,0.453,1.317,0.453c0.416,0,0.79-0.095,1.121-0.284c0.275-0.161,0.521-0.355,0.732-0.585
				c0.011,0.133,0.025,0.251,0.043,0.354s0.05,0.215,0.096,0.332h1.66v-0.225c-0.1-0.047-0.174-0.105-0.225-0.178
				C270.685,171.54,270.654,171.404,270.644,171.204z M269.111,169.74c-0.011,0.511-0.156,0.863-0.438,1.057
				c-0.281,0.192-0.588,0.289-0.922,0.289c-0.21,0-0.389-0.058-0.535-0.174c-0.147-0.116-0.221-0.305-0.221-0.566
				c0-0.293,0.12-0.509,0.36-0.648c0.142-0.082,0.376-0.152,0.702-0.209l0.348-0.064c0.174-0.032,0.311-0.067,0.41-0.104
				c0.099-0.038,0.197-0.087,0.295-0.147V169.74z M274.309,164.591h-1.511v1.631h-0.813v1.089h0.813v3.599
				c0,0.364,0.086,0.635,0.257,0.81c0.265,0.275,0.758,0.4,1.479,0.376l0.723-0.027v-1.143c-0.049,0.004-0.1,0.007-0.152,0.009
				c-0.051,0.002-0.101,0.002-0.146,0.002c-0.311,0-0.496-0.029-0.558-0.088c-0.061-0.06-0.091-0.208-0.091-0.448v-3.089h0.947
				v-1.089h-0.947V164.591z M277.34,172.014h1.548v-5.846h-1.548V172.014z M277.34,165.471h1.548v-1.41h-1.548V165.471z
				 M283.686,165.98c-1.004,0-1.752,0.309-2.244,0.927s-0.739,1.349-0.739,2.191c0,0.857,0.247,1.591,0.739,2.2
				s1.24,0.914,2.244,0.914s1.752-0.305,2.244-0.914c0.493-0.609,0.739-1.343,0.739-2.2c0-0.843-0.246-1.573-0.739-2.191
				C285.438,166.289,284.689,165.98,283.686,165.98z M284.709,170.454c-0.239,0.317-0.582,0.477-1.029,0.477
				c-0.445,0-0.789-0.159-1.03-0.477s-0.362-0.77-0.362-1.355c0-0.585,0.121-1.036,0.362-1.352c0.241-0.316,0.585-0.475,1.03-0.475
				c0.447,0,0.79,0.158,1.029,0.475c0.238,0.315,0.359,0.767,0.359,1.352C285.068,169.685,284.947,170.137,284.709,170.454z
				 M293.479,166.503c-0.383-0.316-0.873-0.475-1.475-0.475c-0.48,0-0.877,0.118-1.189,0.354c-0.174,0.132-0.359,0.349-0.555,0.648
				v-0.853h-1.479v5.835h1.527v-3.164c0-0.361,0.049-0.658,0.148-0.891c0.191-0.439,0.544-0.659,1.059-0.659
				c0.418,0,0.701,0.15,0.85,0.45c0.082,0.165,0.123,0.4,0.123,0.708v3.556h1.563v-3.937
				C294.052,167.345,293.861,166.819,293.479,166.503z"/>
		</g>
	</g>
</g>
</svg>
